<svg xmlns="http://www.w3.org/2000/svg" version="1.1" xmlns:xlink="http://www.w3.org/1999/xlink" xmlns:svgjs="http://svgjs.dev/svgjs" viewBox="0 0 600 600"><path d="M593.1818013491301 265.38460119287436C591.0838990511564 172.02795529087646 181.11887664616785 -38.63637264847495 101.22377446314374 12.587407665652648C21.328672280119648 63.81118797978024 31.81818376998781 530.5944174897697 113.81118825098554 572.7272830776401C195.80419273198328 614.8601486655102 595.2797036471037 358.74124709487216 593.1818013491301 265.38460119287436C591.0838990511564 172.02795529087646 181.11887664616785 -38.63637264847495 101.22377446314374 12.587407665652648 " fill="#9475af" transform="matrix(0.95,0,0,0.95,15.99229907989502,14.551074218749989)"></path><path d="M561.3963067147812 266.83159296864835C559.2984044168076 173.4749470666505 149.33338201181897 -37.18938087270092 69.43827982879486 14.034399441426672C-10.456822354229232 65.25817975555427 0.0326891356389325 532.0414092655437 82.02569361663666 574.1742748534145C164.0186980976344 616.3071404412847 563.4942090127548 360.1882388706462 561.3963067147812 266.83159296864835C559.2984044168076 173.4749470666505 149.33338201181897 -37.18938087270092 69.43827982879486 14.034399441426672 " fill-opacity="1" fill="#5596bf" opacity="1" stroke-opacity="1" stroke-width="0" stroke="hsl(340, 45%, 30%)" transform="matrix(0.8104388094140624,0,0,0.8104388094140624,126.77518923814387,127.94477729973352)"></path></svg>